<mxfile host="Electron" agent="Mozilla/5.0 (X11; Linux x86_64) AppleWebKit/537.36 (KHTML, like Gecko) draw.io/24.7.8 Chrome/128.0.6613.36 Electron/32.0.1 Safari/537.36" version="24.7.8">
  <diagram id="wiBtXIiwisFu1BKxmezy" name="cam">
    <mxGraphModel dx="1434" dy="870" grid="1" gridSize="10" guides="1" tooltips="1" connect="1" arrows="1" fold="1" page="1" pageScale="1" pageWidth="10000" pageHeight="10000" math="0" shadow="0">
      <root>
        <mxCell id="0" />
        <mxCell id="1" parent="0" />
        <mxCell id="D87qJEDBKt65wt1a1IEP-3" value="RAM 0-0&lt;div&gt;olo_base_ram_sdp&lt;/div&gt;" style="rounded=1;whiteSpace=wrap;html=1;fillColor=#f5f5f5;fontColor=#333333;strokeColor=#666666;" vertex="1" parent="1">
          <mxGeometry x="440" y="280" width="120" height="80" as="geometry" />
        </mxCell>
        <mxCell id="D87qJEDBKt65wt1a1IEP-4" value="RAM 0-1&lt;div&gt;olo_base_ram_sdp&lt;/div&gt;" style="rounded=1;whiteSpace=wrap;html=1;fillColor=#f5f5f5;fontColor=#333333;strokeColor=#666666;" vertex="1" parent="1">
          <mxGeometry x="440" y="380" width="120" height="80" as="geometry" />
        </mxCell>
        <mxCell id="D87qJEDBKt65wt1a1IEP-5" value="RAM 1-0&lt;div&gt;olo_base_ram_sdp&lt;/div&gt;" style="rounded=1;whiteSpace=wrap;html=1;fillColor=#f5f5f5;fontColor=#333333;strokeColor=#666666;" vertex="1" parent="1">
          <mxGeometry x="440" y="480" width="120" height="80" as="geometry" />
        </mxCell>
        <mxCell id="D87qJEDBKt65wt1a1IEP-6" value="RAM 1-1&lt;div&gt;olo_base_ram_sdp&lt;/div&gt;" style="rounded=1;whiteSpace=wrap;html=1;fillColor=#f5f5f5;fontColor=#333333;strokeColor=#666666;" vertex="1" parent="1">
          <mxGeometry x="440" y="580" width="120" height="80" as="geometry" />
        </mxCell>
        <mxCell id="D87qJEDBKt65wt1a1IEP-7" style="vsdxID=5;fillColor=none;gradientColor=none;strokeColor=none;labelBackgroundColor=none;rounded=0;html=1;whiteSpace=wrap;" vertex="1" parent="1">
          <mxGeometry x="321" y="461" width="81" height="40" as="geometry" />
        </mxCell>
        <mxCell id="D87qJEDBKt65wt1a1IEP-8" style="vsdxID=6;fillColor=none;gradientColor=none;strokeColor=none;labelBackgroundColor=none;rounded=0;html=1;whiteSpace=wrap;" vertex="1" parent="D87qJEDBKt65wt1a1IEP-7">
          <mxGeometry x="-1" width="80" height="40" as="geometry" />
        </mxCell>
        <mxCell id="D87qJEDBKt65wt1a1IEP-9" value="&lt;font style=&quot;font-size:8px;font-family:Segoe UI;color:#000000;direction:ltr;letter-spacing:0px;line-height:120%;opacity:1&quot;&gt;17:0&lt;br&gt;&lt;/font&gt;" style="verticalAlign=middle;align=center;vsdxID=10;fillColor=none;gradientColor=none;shape=stencil(nZBLDoAgDERP0z3SIyjew0SURgSD+Lu9kMZoXLhwN9O+tukAlrNpJg1SzDH4QW/URgNYgZTkjA4UkwJUgGXng+6DX1zLfmoymdXo17xh5zmRJ6Q42BWCfc2oJfdAr+Yv+AP9Cb7OJ3H/2JG1HNGz/84klThPVCc=);strokeColor=none;labelBackgroundColor=none;rounded=0;html=1;whiteSpace=wrap;" vertex="1" parent="D87qJEDBKt65wt1a1IEP-8">
          <mxGeometry y="9" width="32" height="10" as="geometry" />
        </mxCell>
        <mxCell id="D87qJEDBKt65wt1a1IEP-10" value="&lt;font style=&quot;font-size:8px;font-family:Segoe UI;color:#000000;direction:ltr;letter-spacing:0px;line-height:120%;opacity:1&quot;&gt;8:0&lt;br&gt;&lt;/font&gt;" style="verticalAlign=middle;align=center;vsdxID=11;fillColor=none;gradientColor=none;shape=stencil(nZBLDoAgDERP0z3SIyjew0SURgSD+Lu9kMZoXLhwN9O+tukAlrNpJg1SzDH4QW/URgNYgZTkjA4UkwJUgGXng+6DX1zLfmoymdXo17xh5zmRJ6Q42BWCfc2oJfdAr+Yv+AP9Cb7OJ3H/2JG1HNGz/84klThPVCc=);strokeColor=none;labelBackgroundColor=none;rounded=0;html=1;whiteSpace=wrap;" vertex="1" parent="D87qJEDBKt65wt1a1IEP-8">
          <mxGeometry x="48" y="-1" width="32" height="10" as="geometry" />
        </mxCell>
        <mxCell id="D87qJEDBKt65wt1a1IEP-11" style="vsdxID=7;edgeStyle=none;startArrow=none;endArrow=none;startSize=5;endSize=5;strokeWidth=3;strokeColor=#000000;spacingTop=0;spacingBottom=0;spacingLeft=0;spacingRight=0;verticalAlign=middle;html=1;labelBackgroundColor=#ffffff;rounded=0;" edge="1" parent="D87qJEDBKt65wt1a1IEP-8">
          <mxGeometry relative="1" as="geometry">
            <Array as="points" />
            <mxPoint x="40" as="sourcePoint" />
            <mxPoint x="40" y="40" as="targetPoint" />
          </mxGeometry>
        </mxCell>
        <mxCell id="D87qJEDBKt65wt1a1IEP-12" style="vsdxID=8;edgeStyle=none;startArrow=none;endArrow=classic;startSize=5;endSize=5;strokeColor=#000000;spacingTop=0;spacingBottom=0;spacingLeft=0;spacingRight=0;verticalAlign=middle;html=1;labelBackgroundColor=#ffffff;rounded=0;" edge="1" parent="D87qJEDBKt65wt1a1IEP-8">
          <mxGeometry relative="1" as="geometry">
            <mxPoint as="offset" />
            <Array as="points" />
            <mxPoint x="-1" y="20" as="sourcePoint" />
            <mxPoint x="38" y="20" as="targetPoint" />
          </mxGeometry>
        </mxCell>
        <mxCell id="D87qJEDBKt65wt1a1IEP-13" style="vsdxID=9;edgeStyle=none;startArrow=none;endArrow=none;startSize=5;endSize=5;strokeColor=#000000;spacingTop=0;spacingBottom=0;spacingLeft=0;spacingRight=0;verticalAlign=middle;html=1;labelBackgroundColor=#ffffff;rounded=0;" edge="1" parent="D87qJEDBKt65wt1a1IEP-8">
          <mxGeometry relative="1" as="geometry">
            <mxPoint as="offset" />
            <Array as="points" />
            <mxPoint x="40" y="9" as="sourcePoint" />
            <mxPoint x="80" y="9" as="targetPoint" />
          </mxGeometry>
        </mxCell>
        <mxCell id="D87qJEDBKt65wt1a1IEP-64" value="" style="endArrow=none;html=1;rounded=0;strokeWidth=6;entryX=0.995;entryY=0.081;entryDx=0;entryDy=0;entryPerimeter=0;" edge="1" parent="D87qJEDBKt65wt1a1IEP-8">
          <mxGeometry width="50" height="50" relative="1" as="geometry">
            <mxPoint y="40" as="sourcePoint" />
            <mxPoint as="targetPoint" />
          </mxGeometry>
        </mxCell>
        <mxCell id="D87qJEDBKt65wt1a1IEP-14" value="&lt;font style=&quot;font-size:8px;font-family:Segoe UI;color:#000000;direction:ltr;letter-spacing:0px;line-height:120%;opacity:1&quot;&gt;17:9&lt;br&gt;&lt;/font&gt;" style="verticalAlign=middle;align=center;vsdxID=13;fillColor=none;gradientColor=none;shape=stencil(nZBLDoAgDERP0z3SIyjew0SURgSD+Lu9kMZoXLhwN9O+tukAlrNpJg1SzDH4QW/URgNYgZTkjA4UkwJUgGXng+6DX1zLfmoymdXo17xh5zmRJ6Q42BWCfc2oJfdAr+Yv+AP9Cb7OJ3H/2JG1HNGz/84klThPVCc=);strokeColor=none;labelBackgroundColor=none;rounded=0;html=1;whiteSpace=wrap;" vertex="1" parent="D87qJEDBKt65wt1a1IEP-7">
          <mxGeometry x="49" y="19" width="32" height="10" as="geometry" />
        </mxCell>
        <mxCell id="D87qJEDBKt65wt1a1IEP-15" style="vsdxID=12;edgeStyle=none;startArrow=none;endArrow=none;startSize=5;endSize=5;strokeColor=#000000;spacingTop=0;spacingBottom=0;spacingLeft=0;spacingRight=0;verticalAlign=middle;html=1;labelBackgroundColor=#ffffff;rounded=0;" edge="1" parent="D87qJEDBKt65wt1a1IEP-7">
          <mxGeometry relative="1" as="geometry">
            <mxPoint as="offset" />
            <Array as="points" />
            <mxPoint x="41" y="29" as="sourcePoint" />
            <mxPoint x="80" y="29" as="targetPoint" />
          </mxGeometry>
        </mxCell>
        <mxCell id="D87qJEDBKt65wt1a1IEP-16" style="vsdxID=5;fillColor=none;gradientColor=none;strokeColor=none;labelBackgroundColor=none;rounded=0;html=1;whiteSpace=wrap;" vertex="1" parent="1">
          <mxGeometry x="600" y="340" width="80" height="40" as="geometry" />
        </mxCell>
        <mxCell id="D87qJEDBKt65wt1a1IEP-17" value="&lt;font style=&quot;font-size:8px;font-family:Segoe UI;color:#000000;direction:ltr;letter-spacing:0px;line-height:120%;opacity:1&quot;&gt;31:0&lt;br&gt;&lt;/font&gt;" style="verticalAlign=middle;align=center;vsdxID=10;fillColor=none;gradientColor=none;shape=stencil(nZBLDoAgDERP0z3SIyjew0SURgSD+Lu9kMZoXLhwN9O+tukAlrNpJg1SzDH4QW/URgNYgZTkjA4UkwJUgGXng+6DX1zLfmoymdXo17xh5zmRJ6Q42BWCfc2oJfdAr+Yv+AP9Cb7OJ3H/2JG1HNGz/84klThPVCc=);strokeColor=none;labelBackgroundColor=none;rounded=0;html=1;whiteSpace=wrap;" vertex="1" parent="D87qJEDBKt65wt1a1IEP-16">
          <mxGeometry width="32" height="10" as="geometry" />
        </mxCell>
        <mxCell id="D87qJEDBKt65wt1a1IEP-18" value="&lt;font style=&quot;font-size:8px;font-family:Segoe UI;color:#000000;direction:ltr;letter-spacing:0px;line-height:120%;opacity:1&quot;&gt;63:32&lt;br&gt;&lt;/font&gt;" style="verticalAlign=middle;align=center;vsdxID=11;fillColor=none;gradientColor=none;shape=stencil(nZBLDoAgDERP0z3SIyjew0SURgSD+Lu9kMZoXLhwN9O+tukAlrNpJg1SzDH4QW/URgNYgZTkjA4UkwJUgGXng+6DX1zLfmoymdXo17xh5zmRJ6Q42BWCfc2oJfdAr+Yv+AP9Cb7OJ3H/2JG1HNGz/84klThPVCc=);strokeColor=none;labelBackgroundColor=none;rounded=0;html=1;whiteSpace=wrap;" vertex="1" parent="D87qJEDBKt65wt1a1IEP-16">
          <mxGeometry y="20" width="32" height="10" as="geometry" />
        </mxCell>
        <mxCell id="D87qJEDBKt65wt1a1IEP-19" value="&lt;font style=&quot;font-size:8px;font-family:Segoe UI;color:#000000;direction:ltr;letter-spacing:0px;line-height:120%;opacity:1&quot;&gt;63:0&lt;br&gt;&lt;/font&gt;" style="verticalAlign=middle;align=center;vsdxID=12;fillColor=none;gradientColor=none;shape=stencil(nZBLDoAgDERP0z3SIyjew0SURgSD+Lu9kMZoXLhwN9O+tukAlrNpJg1SzDH4QW/URgNYgZTkjA4UkwJUgGXng+6DX1zLfmoymdXo17xh5zmRJ6Q42BWCfc2oJfdAr+Yv+AP9Cb7OJ3H/2JG1HNGz/84klThPVCc=);strokeColor=none;labelBackgroundColor=none;rounded=0;html=1;whiteSpace=wrap;" vertex="1" parent="D87qJEDBKt65wt1a1IEP-16">
          <mxGeometry x="48" y="10" width="32" height="10" as="geometry" />
        </mxCell>
        <mxCell id="D87qJEDBKt65wt1a1IEP-20" style="vsdxID=6;edgeStyle=none;startArrow=none;endArrow=none;startSize=5;endSize=5;strokeWidth=3;strokeColor=#000000;spacingTop=0;spacingBottom=0;spacingLeft=0;spacingRight=0;verticalAlign=middle;html=1;labelBackgroundColor=#ffffff;rounded=0;" edge="1" parent="D87qJEDBKt65wt1a1IEP-16">
          <mxGeometry relative="1" as="geometry">
            <Array as="points" />
            <mxPoint x="40" as="sourcePoint" />
            <mxPoint x="40" y="40" as="targetPoint" />
          </mxGeometry>
        </mxCell>
        <mxCell id="D87qJEDBKt65wt1a1IEP-21" style="vsdxID=7;edgeStyle=none;startArrow=none;endArrow=classic;startSize=5;endSize=5;strokeColor=#000000;spacingTop=0;spacingBottom=0;spacingLeft=0;spacingRight=0;verticalAlign=middle;html=1;labelBackgroundColor=#ffffff;rounded=0;" edge="1" parent="D87qJEDBKt65wt1a1IEP-16">
          <mxGeometry relative="1" as="geometry">
            <mxPoint as="offset" />
            <Array as="points" />
            <mxPoint y="10" as="sourcePoint" />
            <mxPoint x="40" y="10" as="targetPoint" />
          </mxGeometry>
        </mxCell>
        <mxCell id="D87qJEDBKt65wt1a1IEP-22" style="vsdxID=8;edgeStyle=none;startArrow=none;endArrow=classic;startSize=5;endSize=5;strokeColor=#000000;spacingTop=0;spacingBottom=0;spacingLeft=0;spacingRight=0;verticalAlign=middle;html=1;labelBackgroundColor=#ffffff;rounded=0;" edge="1" parent="D87qJEDBKt65wt1a1IEP-16">
          <mxGeometry relative="1" as="geometry">
            <mxPoint as="offset" />
            <Array as="points" />
            <mxPoint y="30" as="sourcePoint" />
            <mxPoint x="40" y="30" as="targetPoint" />
          </mxGeometry>
        </mxCell>
        <mxCell id="D87qJEDBKt65wt1a1IEP-23" style="vsdxID=9;edgeStyle=none;startArrow=none;endArrow=none;startSize=5;endSize=5;strokeColor=#000000;spacingTop=0;spacingBottom=0;spacingLeft=0;spacingRight=0;verticalAlign=middle;html=1;labelBackgroundColor=#ffffff;rounded=0;" edge="1" parent="D87qJEDBKt65wt1a1IEP-16">
          <mxGeometry relative="1" as="geometry">
            <mxPoint as="offset" />
            <Array as="points" />
            <mxPoint x="40" y="20" as="sourcePoint" />
            <mxPoint x="80" y="20" as="targetPoint" />
          </mxGeometry>
        </mxCell>
        <mxCell id="D87qJEDBKt65wt1a1IEP-32" style="vsdxID=5;fillColor=none;gradientColor=none;strokeColor=none;labelBackgroundColor=none;rounded=0;html=1;whiteSpace=wrap;" vertex="1" parent="1">
          <mxGeometry x="680" y="420" width="40" height="40" as="geometry" />
        </mxCell>
        <mxCell id="D87qJEDBKt65wt1a1IEP-33" style="vsdxID=6;fillColor=#FFFFFF;gradientColor=none;shape=stencil(nZBLDoAgDERP0z3SIyjew0SURgSD+Lu9kMZoXLhwN9O+tukAlrNpJg1SzDH4QW/URgNYgZTkjA4UkwJUgGXng+6DX1zLfmoymdXo17xh5zmRJ6Q42BWCfc2oJfdAr+Yv+AP9Cb7OJ3H/2JG1HNGz/84klThPVCc=);strokeColor=#000000;labelBackgroundColor=none;rounded=0;html=1;whiteSpace=wrap;" vertex="1" parent="D87qJEDBKt65wt1a1IEP-32">
          <mxGeometry x="20" width="20" height="40" as="geometry" />
        </mxCell>
        <mxCell id="D87qJEDBKt65wt1a1IEP-34" value="&lt;font style=&quot;font-size:11px;font-family:Calibri;color:#000000;direction:ltr;letter-spacing:0px;line-height:120%;opacity:1&quot;&gt;&amp;amp;&lt;br/&gt;&lt;/font&gt;" style="verticalAlign=middle;align=center;vsdxID=7;fillColor=none;gradientColor=none;shape=stencil(nZBLDoAgDERP0z3SIyjew0SURgSD+Lu9kMZoXLhwN9O+tukAlrNpJg1SzDH4QW/URgNYgZTkjA4UkwJUgGXng+6DX1zLfmoymdXo17xh5zmRJ6Q42BWCfc2oJfdAr+Yv+AP9Cb7OJ3H/2JG1HNGz/84klThPVCc=);strokeColor=none;spacingTop=-3;spacingBottom=-3;spacingLeft=-3;spacingRight=-3;labelBackgroundColor=none;rounded=0;html=1;whiteSpace=wrap;" vertex="1" parent="D87qJEDBKt65wt1a1IEP-32">
          <mxGeometry x="20" y="10" width="20" height="20" as="geometry" />
        </mxCell>
        <mxCell id="D87qJEDBKt65wt1a1IEP-35" style="vsdxID=8;edgeStyle=none;startArrow=none;endArrow=classic;startSize=5;endSize=5;strokeColor=#000000;spacingTop=0;spacingBottom=0;spacingLeft=0;spacingRight=0;verticalAlign=middle;html=1;labelBackgroundColor=#ffffff;rounded=0;" edge="1" parent="D87qJEDBKt65wt1a1IEP-32">
          <mxGeometry relative="1" as="geometry">
            <mxPoint as="offset" />
            <Array as="points" />
            <mxPoint y="10" as="sourcePoint" />
            <mxPoint x="20" y="10" as="targetPoint" />
          </mxGeometry>
        </mxCell>
        <mxCell id="D87qJEDBKt65wt1a1IEP-36" style="vsdxID=9;edgeStyle=none;startArrow=none;endArrow=classic;startSize=5;endSize=5;strokeColor=#000000;spacingTop=0;spacingBottom=0;spacingLeft=0;spacingRight=0;verticalAlign=middle;html=1;labelBackgroundColor=#ffffff;rounded=0;" edge="1" parent="D87qJEDBKt65wt1a1IEP-32">
          <mxGeometry relative="1" as="geometry">
            <mxPoint as="offset" />
            <Array as="points" />
            <mxPoint y="30" as="sourcePoint" />
            <mxPoint x="20" y="30" as="targetPoint" />
          </mxGeometry>
        </mxCell>
        <mxCell id="D87qJEDBKt65wt1a1IEP-37" value="" style="endArrow=none;html=1;rounded=0;entryX=0;entryY=0.25;entryDx=0;entryDy=0;" edge="1" parent="1" target="D87qJEDBKt65wt1a1IEP-16">
          <mxGeometry width="50" height="50" relative="1" as="geometry">
            <mxPoint x="560" y="320" as="sourcePoint" />
            <mxPoint x="610" y="270" as="targetPoint" />
            <Array as="points">
              <mxPoint x="600" y="320" />
            </Array>
          </mxGeometry>
        </mxCell>
        <mxCell id="D87qJEDBKt65wt1a1IEP-38" value="" style="endArrow=none;html=1;rounded=0;exitX=1;exitY=0.5;exitDx=0;exitDy=0;" edge="1" parent="1" source="D87qJEDBKt65wt1a1IEP-4">
          <mxGeometry width="50" height="50" relative="1" as="geometry">
            <mxPoint x="550" y="420" as="sourcePoint" />
            <mxPoint x="600" y="370" as="targetPoint" />
            <Array as="points">
              <mxPoint x="600" y="420" />
            </Array>
          </mxGeometry>
        </mxCell>
        <mxCell id="D87qJEDBKt65wt1a1IEP-39" style="vsdxID=5;fillColor=none;gradientColor=none;strokeColor=none;labelBackgroundColor=none;rounded=0;html=1;whiteSpace=wrap;" vertex="1" parent="1">
          <mxGeometry x="600" y="540" width="80" height="40" as="geometry" />
        </mxCell>
        <mxCell id="D87qJEDBKt65wt1a1IEP-40" value="&lt;font style=&quot;font-size:8px;font-family:Segoe UI;color:#000000;direction:ltr;letter-spacing:0px;line-height:120%;opacity:1&quot;&gt;31:0&lt;br&gt;&lt;/font&gt;" style="verticalAlign=middle;align=center;vsdxID=10;fillColor=none;gradientColor=none;shape=stencil(nZBLDoAgDERP0z3SIyjew0SURgSD+Lu9kMZoXLhwN9O+tukAlrNpJg1SzDH4QW/URgNYgZTkjA4UkwJUgGXng+6DX1zLfmoymdXo17xh5zmRJ6Q42BWCfc2oJfdAr+Yv+AP9Cb7OJ3H/2JG1HNGz/84klThPVCc=);strokeColor=none;labelBackgroundColor=none;rounded=0;html=1;whiteSpace=wrap;" vertex="1" parent="D87qJEDBKt65wt1a1IEP-39">
          <mxGeometry width="32" height="10" as="geometry" />
        </mxCell>
        <mxCell id="D87qJEDBKt65wt1a1IEP-41" value="&lt;font style=&quot;font-size:8px;font-family:Segoe UI;color:#000000;direction:ltr;letter-spacing:0px;line-height:120%;opacity:1&quot;&gt;63:32&lt;br&gt;&lt;/font&gt;" style="verticalAlign=middle;align=center;vsdxID=11;fillColor=none;gradientColor=none;shape=stencil(nZBLDoAgDERP0z3SIyjew0SURgSD+Lu9kMZoXLhwN9O+tukAlrNpJg1SzDH4QW/URgNYgZTkjA4UkwJUgGXng+6DX1zLfmoymdXo17xh5zmRJ6Q42BWCfc2oJfdAr+Yv+AP9Cb7OJ3H/2JG1HNGz/84klThPVCc=);strokeColor=none;labelBackgroundColor=none;rounded=0;html=1;whiteSpace=wrap;" vertex="1" parent="D87qJEDBKt65wt1a1IEP-39">
          <mxGeometry y="20" width="32" height="10" as="geometry" />
        </mxCell>
        <mxCell id="D87qJEDBKt65wt1a1IEP-42" value="&lt;font style=&quot;font-size:8px;font-family:Segoe UI;color:#000000;direction:ltr;letter-spacing:0px;line-height:120%;opacity:1&quot;&gt;63:0&lt;br&gt;&lt;/font&gt;" style="verticalAlign=middle;align=center;vsdxID=12;fillColor=none;gradientColor=none;shape=stencil(nZBLDoAgDERP0z3SIyjew0SURgSD+Lu9kMZoXLhwN9O+tukAlrNpJg1SzDH4QW/URgNYgZTkjA4UkwJUgGXng+6DX1zLfmoymdXo17xh5zmRJ6Q42BWCfc2oJfdAr+Yv+AP9Cb7OJ3H/2JG1HNGz/84klThPVCc=);strokeColor=none;labelBackgroundColor=none;rounded=0;html=1;whiteSpace=wrap;" vertex="1" parent="D87qJEDBKt65wt1a1IEP-39">
          <mxGeometry x="48" y="10" width="32" height="10" as="geometry" />
        </mxCell>
        <mxCell id="D87qJEDBKt65wt1a1IEP-43" style="vsdxID=6;edgeStyle=none;startArrow=none;endArrow=none;startSize=5;endSize=5;strokeWidth=3;strokeColor=#000000;spacingTop=0;spacingBottom=0;spacingLeft=0;spacingRight=0;verticalAlign=middle;html=1;labelBackgroundColor=#ffffff;rounded=0;" edge="1" parent="D87qJEDBKt65wt1a1IEP-39">
          <mxGeometry relative="1" as="geometry">
            <Array as="points" />
            <mxPoint x="40" as="sourcePoint" />
            <mxPoint x="40" y="40" as="targetPoint" />
          </mxGeometry>
        </mxCell>
        <mxCell id="D87qJEDBKt65wt1a1IEP-44" style="vsdxID=7;edgeStyle=none;startArrow=none;endArrow=classic;startSize=5;endSize=5;strokeColor=#000000;spacingTop=0;spacingBottom=0;spacingLeft=0;spacingRight=0;verticalAlign=middle;html=1;labelBackgroundColor=#ffffff;rounded=0;" edge="1" parent="D87qJEDBKt65wt1a1IEP-39">
          <mxGeometry relative="1" as="geometry">
            <mxPoint as="offset" />
            <Array as="points" />
            <mxPoint y="10" as="sourcePoint" />
            <mxPoint x="40" y="10" as="targetPoint" />
          </mxGeometry>
        </mxCell>
        <mxCell id="D87qJEDBKt65wt1a1IEP-45" style="vsdxID=8;edgeStyle=none;startArrow=none;endArrow=classic;startSize=5;endSize=5;strokeColor=#000000;spacingTop=0;spacingBottom=0;spacingLeft=0;spacingRight=0;verticalAlign=middle;html=1;labelBackgroundColor=#ffffff;rounded=0;" edge="1" parent="D87qJEDBKt65wt1a1IEP-39">
          <mxGeometry relative="1" as="geometry">
            <mxPoint as="offset" />
            <Array as="points" />
            <mxPoint y="30" as="sourcePoint" />
            <mxPoint x="40" y="30" as="targetPoint" />
          </mxGeometry>
        </mxCell>
        <mxCell id="D87qJEDBKt65wt1a1IEP-46" style="vsdxID=9;edgeStyle=none;startArrow=none;endArrow=none;startSize=5;endSize=5;strokeColor=#000000;spacingTop=0;spacingBottom=0;spacingLeft=0;spacingRight=0;verticalAlign=middle;html=1;labelBackgroundColor=#ffffff;rounded=0;" edge="1" parent="D87qJEDBKt65wt1a1IEP-39">
          <mxGeometry relative="1" as="geometry">
            <mxPoint as="offset" />
            <Array as="points" />
            <mxPoint x="40" y="20" as="sourcePoint" />
            <mxPoint x="80" y="20" as="targetPoint" />
          </mxGeometry>
        </mxCell>
        <mxCell id="D87qJEDBKt65wt1a1IEP-47" value="" style="endArrow=none;html=1;rounded=0;entryX=0;entryY=0.25;entryDx=0;entryDy=0;" edge="1" parent="1" target="D87qJEDBKt65wt1a1IEP-39">
          <mxGeometry width="50" height="50" relative="1" as="geometry">
            <mxPoint x="560" y="520" as="sourcePoint" />
            <mxPoint x="610" y="470" as="targetPoint" />
            <Array as="points">
              <mxPoint x="600" y="520" />
            </Array>
          </mxGeometry>
        </mxCell>
        <mxCell id="D87qJEDBKt65wt1a1IEP-48" value="" style="endArrow=none;html=1;rounded=0;exitX=1;exitY=0.5;exitDx=0;exitDy=0;" edge="1" parent="1">
          <mxGeometry width="50" height="50" relative="1" as="geometry">
            <mxPoint x="560" y="620" as="sourcePoint" />
            <mxPoint x="600" y="570" as="targetPoint" />
            <Array as="points">
              <mxPoint x="600" y="620" />
            </Array>
          </mxGeometry>
        </mxCell>
        <mxCell id="D87qJEDBKt65wt1a1IEP-49" value="" style="endArrow=none;html=1;rounded=0;entryX=0;entryY=0.25;entryDx=0;entryDy=0;" edge="1" parent="1" target="D87qJEDBKt65wt1a1IEP-32">
          <mxGeometry width="50" height="50" relative="1" as="geometry">
            <mxPoint x="680" y="360" as="sourcePoint" />
            <mxPoint x="730" y="310" as="targetPoint" />
          </mxGeometry>
        </mxCell>
        <mxCell id="D87qJEDBKt65wt1a1IEP-50" value="" style="endArrow=none;html=1;rounded=0;entryX=0;entryY=0.75;entryDx=0;entryDy=0;" edge="1" parent="1" target="D87qJEDBKt65wt1a1IEP-32">
          <mxGeometry width="50" height="50" relative="1" as="geometry">
            <mxPoint x="680" y="560" as="sourcePoint" />
            <mxPoint x="730" y="510" as="targetPoint" />
          </mxGeometry>
        </mxCell>
        <mxCell id="D87qJEDBKt65wt1a1IEP-52" value="olo_base_decode_firstbit" style="rounded=1;whiteSpace=wrap;html=1;fillColor=#f5f5f5;fontColor=#333333;strokeColor=#666666;" vertex="1" parent="1">
          <mxGeometry x="800" y="400" width="160" height="80" as="geometry" />
        </mxCell>
        <mxCell id="D87qJEDBKt65wt1a1IEP-53" value="" style="endArrow=none;html=1;rounded=0;strokeWidth=6;entryX=0.995;entryY=0.081;entryDx=0;entryDy=0;entryPerimeter=0;" edge="1" parent="1" target="D87qJEDBKt65wt1a1IEP-3">
          <mxGeometry width="50" height="50" relative="1" as="geometry">
            <mxPoint x="560" y="650" as="sourcePoint" />
            <mxPoint x="610" y="600" as="targetPoint" />
          </mxGeometry>
        </mxCell>
        <mxCell id="D87qJEDBKt65wt1a1IEP-54" value="" style="endArrow=none;html=1;rounded=0;strokeWidth=6;entryX=0.995;entryY=0.081;entryDx=0;entryDy=0;entryPerimeter=0;" edge="1" parent="1">
          <mxGeometry width="50" height="50" relative="1" as="geometry">
            <mxPoint x="740" y="460" as="sourcePoint" />
            <mxPoint x="740" y="420" as="targetPoint" />
          </mxGeometry>
        </mxCell>
        <mxCell id="D87qJEDBKt65wt1a1IEP-55" value="" style="endArrow=classic;html=1;rounded=0;entryX=0;entryY=0.5;entryDx=0;entryDy=0;" edge="1" parent="1" target="D87qJEDBKt65wt1a1IEP-52">
          <mxGeometry width="50" height="50" relative="1" as="geometry">
            <mxPoint x="720" y="440" as="sourcePoint" />
            <mxPoint x="770" y="390" as="targetPoint" />
          </mxGeometry>
        </mxCell>
        <mxCell id="D87qJEDBKt65wt1a1IEP-56" value="" style="endArrow=none;html=1;rounded=0;strokeWidth=6;entryX=0.995;entryY=0.081;entryDx=0;entryDy=0;entryPerimeter=0;exitX=1.002;exitY=0.896;exitDx=0;exitDy=0;exitPerimeter=0;" edge="1" parent="1" source="D87qJEDBKt65wt1a1IEP-52">
          <mxGeometry width="50" height="50" relative="1" as="geometry">
            <mxPoint x="960" y="450" as="sourcePoint" />
            <mxPoint x="960" y="410" as="targetPoint" />
          </mxGeometry>
        </mxCell>
        <mxCell id="D87qJEDBKt65wt1a1IEP-57" value="" style="endArrow=classic;html=1;rounded=0;entryX=0;entryY=0.5;entryDx=0;entryDy=0;" edge="1" parent="1">
          <mxGeometry width="50" height="50" relative="1" as="geometry">
            <mxPoint x="960" y="439.71" as="sourcePoint" />
            <mxPoint x="1040" y="439.71" as="targetPoint" />
          </mxGeometry>
        </mxCell>
        <mxCell id="D87qJEDBKt65wt1a1IEP-58" value="" style="endArrow=classic;html=1;rounded=0;startArrow=oval;startFill=1;" edge="1" parent="1">
          <mxGeometry width="50" height="50" relative="1" as="geometry">
            <mxPoint x="760" y="440" as="sourcePoint" />
            <mxPoint x="1041.142857142857" y="520" as="targetPoint" />
            <Array as="points">
              <mxPoint x="760" y="520" />
            </Array>
          </mxGeometry>
        </mxCell>
        <mxCell id="D87qJEDBKt65wt1a1IEP-60" value="" style="endArrow=classic;html=1;rounded=0;exitX=1;exitY=0.234;exitDx=0;exitDy=0;exitPerimeter=0;" edge="1" parent="1" source="D87qJEDBKt65wt1a1IEP-8">
          <mxGeometry width="50" height="50" relative="1" as="geometry">
            <mxPoint x="390" y="370" as="sourcePoint" />
            <mxPoint x="440" y="320" as="targetPoint" />
            <Array as="points">
              <mxPoint x="401" y="320" />
            </Array>
          </mxGeometry>
        </mxCell>
        <mxCell id="D87qJEDBKt65wt1a1IEP-61" value="" style="endArrow=classic;html=1;rounded=0;startArrow=oval;startFill=1;" edge="1" parent="1">
          <mxGeometry width="50" height="50" relative="1" as="geometry">
            <mxPoint x="400" y="415" as="sourcePoint" />
            <mxPoint x="440" y="415" as="targetPoint" />
          </mxGeometry>
        </mxCell>
        <mxCell id="D87qJEDBKt65wt1a1IEP-62" value="" style="endArrow=classic;html=1;rounded=0;exitX=1.001;exitY=0.717;exitDx=0;exitDy=0;exitPerimeter=0;entryX=0;entryY=0.5;entryDx=0;entryDy=0;" edge="1" parent="1" source="D87qJEDBKt65wt1a1IEP-8" target="D87qJEDBKt65wt1a1IEP-6">
          <mxGeometry width="50" height="50" relative="1" as="geometry">
            <mxPoint x="402" y="490" as="sourcePoint" />
            <mxPoint x="412" y="620" as="targetPoint" />
            <Array as="points">
              <mxPoint x="400" y="620" />
            </Array>
          </mxGeometry>
        </mxCell>
        <mxCell id="D87qJEDBKt65wt1a1IEP-63" value="" style="endArrow=classic;html=1;rounded=0;startArrow=oval;startFill=1;" edge="1" parent="1">
          <mxGeometry width="50" height="50" relative="1" as="geometry">
            <mxPoint x="400" y="519.88" as="sourcePoint" />
            <mxPoint x="440" y="519.88" as="targetPoint" />
            <Array as="points">
              <mxPoint x="408" y="520.08" />
            </Array>
          </mxGeometry>
        </mxCell>
        <mxCell id="D87qJEDBKt65wt1a1IEP-65" value="" style="endArrow=none;html=1;rounded=0;" edge="1" parent="1">
          <mxGeometry width="50" height="50" relative="1" as="geometry">
            <mxPoint x="280" y="480" as="sourcePoint" />
            <mxPoint x="321" y="480" as="targetPoint" />
          </mxGeometry>
        </mxCell>
        <mxCell id="-6OWdrZotKWymxEUFg04-1" value="Rd_Content" style="text;html=1;align=right;verticalAlign=middle;whiteSpace=wrap;rounded=0;" vertex="1" parent="1">
          <mxGeometry x="200" y="471" width="80" height="20" as="geometry" />
        </mxCell>
        <mxCell id="-6OWdrZotKWymxEUFg04-2" value="Addr_Addr" style="text;html=1;align=left;verticalAlign=middle;whiteSpace=wrap;rounded=0;" vertex="1" parent="1">
          <mxGeometry x="1040" y="430" width="80" height="20" as="geometry" />
        </mxCell>
        <mxCell id="-6OWdrZotKWymxEUFg04-3" value="Match_Match" style="text;html=1;align=left;verticalAlign=middle;whiteSpace=wrap;rounded=0;" vertex="1" parent="1">
          <mxGeometry x="1040" y="510" width="80" height="20" as="geometry" />
        </mxCell>
      </root>
    </mxGraphModel>
  </diagram>
</mxfile>
